<mxfile host="app.diagrams.net" modified="2021-06-10T17:20:43.213Z" agent="5.0 (Windows NT 10.0; Win64; x64) AppleWebKit/537.36 (KHTML, like Gecko) Chrome/91.0.4472.77 Safari/537.36 Edg/91.0.864.41" etag="gWmMbRxPJxeBRTtRF_-C" version="14.7.7" type="github">
  <diagram name="Page-1" id="5f0bae14-7c28-e335-631c-24af17079c00">
    <mxGraphModel dx="1422" dy="762" grid="1" gridSize="10" guides="1" tooltips="1" connect="1" arrows="1" fold="1" page="1" pageScale="1" pageWidth="1400" pageHeight="850" background="#ffffff" math="0" shadow="0">
      <root>
        <mxCell id="0" />
        <mxCell id="1" parent="0" />
        <mxCell id="usnoD5fkQpzbVpsHnwxr-3" value="CONTRIBUTOR 1" style="shape=umlFrame;whiteSpace=wrap;html=1;width=90;height=50;" parent="1" vertex="1">
          <mxGeometry x="180" y="430" width="300" height="220" as="geometry" />
        </mxCell>
        <mxCell id="usnoD5fkQpzbVpsHnwxr-11" value="Contributor &#xa;manager" style="shape=module;align=left;spacingLeft=20;align=center;verticalAlign=top;" parent="1" vertex="1">
          <mxGeometry x="350" y="450" width="100" height="50" as="geometry" />
        </mxCell>
        <mxCell id="usnoD5fkQpzbVpsHnwxr-12" value="" style="shape=cylinder3;whiteSpace=wrap;html=1;boundedLbl=1;backgroundOutline=1;size=15;" parent="1" vertex="1">
          <mxGeometry x="370" y="560" width="60" height="80" as="geometry" />
        </mxCell>
        <mxCell id="usnoD5fkQpzbVpsHnwxr-13" value="Database" style="text;html=1;strokeColor=none;fillColor=none;align=center;verticalAlign=middle;whiteSpace=wrap;rounded=0;" parent="1" vertex="1">
          <mxGeometry x="380" y="595" width="40" height="20" as="geometry" />
        </mxCell>
        <mxCell id="usnoD5fkQpzbVpsHnwxr-23" value="" style="rounded=0;orthogonalLoop=1;jettySize=auto;html=1;endArrow=none;endFill=0;exitX=0.5;exitY=1;exitDx=0;exitDy=0;" parent="1" source="usnoD5fkQpzbVpsHnwxr-11" target="usnoD5fkQpzbVpsHnwxr-25" edge="1">
          <mxGeometry relative="1" as="geometry">
            <mxPoint x="410" y="385" as="sourcePoint" />
          </mxGeometry>
        </mxCell>
        <mxCell id="usnoD5fkQpzbVpsHnwxr-24" value="" style="rounded=0;orthogonalLoop=1;jettySize=auto;html=1;endArrow=halfCircle;endFill=0;entryX=0.5;entryY=0.5;entryDx=0;entryDy=0;endSize=6;strokeWidth=1;" parent="1" source="usnoD5fkQpzbVpsHnwxr-12" target="usnoD5fkQpzbVpsHnwxr-25" edge="1">
          <mxGeometry relative="1" as="geometry">
            <mxPoint x="450" y="385" as="sourcePoint" />
          </mxGeometry>
        </mxCell>
        <mxCell id="usnoD5fkQpzbVpsHnwxr-25" value="" style="ellipse;whiteSpace=wrap;html=1;fontFamily=Helvetica;fontSize=12;fontColor=#000000;align=center;strokeColor=#000000;fillColor=#ffffff;points=[];aspect=fixed;resizable=0;" parent="1" vertex="1">
          <mxGeometry x="395" y="530" width="10" height="10" as="geometry" />
        </mxCell>
        <mxCell id="usnoD5fkQpzbVpsHnwxr-27" value="" style="rounded=0;orthogonalLoop=1;jettySize=auto;html=1;endArrow=halfCircle;endFill=0;entryX=0.5;entryY=0.5;entryDx=0;entryDy=0;endSize=6;strokeWidth=1;" parent="1" source="usnoD5fkQpzbVpsHnwxr-11" target="usnoD5fkQpzbVpsHnwxr-28" edge="1">
          <mxGeometry relative="1" as="geometry">
            <mxPoint x="420" y="375" as="sourcePoint" />
          </mxGeometry>
        </mxCell>
        <mxCell id="usnoD5fkQpzbVpsHnwxr-28" value="" style="ellipse;whiteSpace=wrap;html=1;fontFamily=Helvetica;fontSize=12;fontColor=#000000;align=center;strokeColor=#000000;fillColor=#ffffff;points=[];aspect=fixed;resizable=0;" parent="1" vertex="1">
          <mxGeometry x="395" y="370" width="10" height="10" as="geometry" />
        </mxCell>
        <mxCell id="usnoD5fkQpzbVpsHnwxr-32" value="CONTRIBUTOR SPECIFIC&amp;nbsp;" style="shape=umlFrame;whiteSpace=wrap;html=1;width=90;height=50;" parent="1" vertex="1">
          <mxGeometry x="200" y="540" width="130" height="90" as="geometry" />
        </mxCell>
        <mxCell id="usnoD5fkQpzbVpsHnwxr-33" value="" style="rounded=0;orthogonalLoop=1;jettySize=auto;html=1;endArrow=none;endFill=0;exitX=0;exitY=1;exitDx=10;exitDy=0;exitPerimeter=0;" parent="1" source="usnoD5fkQpzbVpsHnwxr-11" target="usnoD5fkQpzbVpsHnwxr-35" edge="1">
          <mxGeometry relative="1" as="geometry">
            <mxPoint x="410" y="385" as="sourcePoint" />
          </mxGeometry>
        </mxCell>
        <mxCell id="usnoD5fkQpzbVpsHnwxr-34" value="" style="rounded=0;orthogonalLoop=1;jettySize=auto;html=1;endArrow=halfCircle;endFill=0;entryX=0.5;entryY=0.5;entryDx=0;entryDy=0;endSize=6;strokeWidth=1;" parent="1" source="usnoD5fkQpzbVpsHnwxr-32" target="usnoD5fkQpzbVpsHnwxr-35" edge="1">
          <mxGeometry relative="1" as="geometry">
            <mxPoint x="450" y="385" as="sourcePoint" />
          </mxGeometry>
        </mxCell>
        <mxCell id="usnoD5fkQpzbVpsHnwxr-35" value="" style="ellipse;whiteSpace=wrap;html=1;fontFamily=Helvetica;fontSize=12;fontColor=#000000;align=center;strokeColor=#000000;fillColor=#ffffff;points=[];aspect=fixed;resizable=0;" parent="1" vertex="1">
          <mxGeometry x="320" y="510" width="10" height="10" as="geometry" />
        </mxCell>
        <mxCell id="usnoD5fkQpzbVpsHnwxr-41" value="Contributor&amp;nbsp;&lt;br&gt;interface" style="text;html=1;strokeColor=none;fillColor=none;align=center;verticalAlign=middle;whiteSpace=wrap;rounded=0;" parent="1" vertex="1">
          <mxGeometry x="340" y="365" width="40" height="20" as="geometry" />
        </mxCell>
      </root>
    </mxGraphModel>
  </diagram>
</mxfile>
